:SAMPLES-PER-SECOND 30
:FULLY-SPECIFIED
:DEGREES
446
root  12.9315 39.6003 30.9297 -87.5831 -85.2872 81.885
RightUpLeg  -17.9514 -12.4071 -0.157226
RightLeg  6.58947 -6.12354 2.96987
RightFoot  2.55985 -0.293275 2.54161
RightToes  -4.65663e-010 0 -3.6325e-017
Spine  9.41678 -3.04908 -6.18728
Spine1  6.24702 -4.71107 4.03128
HEad  -12.8338 0.87205 1.34384
LeftShoulder1  8.14306 -12.1253 -45.4154
LeftArm  -16.8582 -9.78192 -10.9584
LeftForeArm  19.7969 -24.1242 -4.10134
LeftHand  -0.244104 0.0205437 5.32207
RightShoulder  5.28385 8.60352 37.6125
RightArm  0.878939 -20.8745 25.9832
RightForeArm  6.46024 13.0577 6.99529
RightHand  -1.29139 3.46459 -17.0688
LeftUpLeg  12.038 5.75466 -3.66821
LeftLeg  8.89304 15.9371 -3.99858
LeftFoot  -15.2487 0.0715807 -0.561096
LeftToes  -7.27628e-011 -1.6005e-012 -1.37987e-011
447
root  11.3808 39.297 31.1454 -85.2017 -84.8611 79.4557
RightUpLeg  -15.7949 -5.23293 -2.71965
RightLeg  -4.63325 -14.5112 7.42838
RightFoot  1.23317 -0.291114 2.75708
RightToes  -4.65663e-010 0 -3.6325e-017
Spine  8.87433 -3.25897 -7.30837
Spine1  6.28887 -5.21977 5.34634
HEad  -12.6778 0.752986 1.38361
LeftShoulder1  8.16845 -12.2349 -45.2334
LeftArm  -17.4314 -10.8952 -10.4506
LeftForeArm  21.4273 -28.0737 -4.89719
LeftHand  -0.244104 0.0205437 5.32207
RightShoulder  5.27353 8.53197 37.7792
RightArm  -5.27478 -21.1853 25.6054
RightForeArm  9.68318 8.49095 6.73252
RightHand  -1.30634 3.61072 -16.9905
LeftUpLeg  14.7237 5.93626 -3.9363
LeftLeg  8.94946 15.173 -4.24959
LeftFoot  -17.1798 0.028018 -1.43338
LeftToes  -7.27628e-011 -1.6005e-012 -1.37987e-011
448
root  9.77931 38.9558 31.3231 -84.4771 -84.5634 78.6112
RightUpLeg  -16.3598 -5.29996 -2.24318
RightLeg  -5.44519 -14.6528 7.48642
RightFoot  -0.833561 -0.33321 3.51461
RightToes  -4.65663e-010 0 -3.6325e-017
Spine  8.58984 -3.41272 -7.94132
Spine1  6.1799 -5.56918 6.25824
HEad  -12.899 0.795571 1.18264
LeftShoulder1  8.16713 -12.2842 -45.079
LeftArm  -17.7119 -11.2263 -10.3873
LeftForeArm  23.5327 -32.1736 -5.74946
LeftHand  -0.244104 0.0205437 5.32207
RightShoulder  5.34066 8.54713 38.2621
RightArm  -8.95175 -21.4252 25.4308
RightForeArm  9.76231 4.89044 5.54851
RightHand  -1.3962 4.07543 -17.2711
LeftUpLeg  16.9998 6.62728 -3.76498
LeftLeg  10.3077 13.8794 -4.12373
LeftFoot  -18.8302 -0.0651283 -2.73934
LeftToes  -7.27628e-011 -1.6005e-012 -1.37987e-011
449
root  8.15573 38.7593 31.4964 -83.1801 -85.0199 77.2975
RightUpLeg  -16.7512 -5.33174 -1.24935
RightLeg  -1.96644 -16.1398 6.85541
RightFoot  0.449242 -0.119869 1.26984
RightToes  -4.65663e-010 0 -3.6325e-017
Spine  8.2597 -3.64141 -6.93299
Spine1  6.51256 -5.94511 6.66744
HEad  -13.4465 1.00614 0.685229
LeftShoulder1  8.15502 -12.2442 -45.1286
LeftArm  -17.7401 -10.661 -10.7034
LeftForeArm  26.4106 -36.2553 -6.63572
LeftHand  -0.244104 0.0205437 5.32207
RightShoulder  5.38689 8.55201 38.613
RightArm  -11.7374 -21.9398 25.6536
RightForeArm  8.83278 3.04025 4.60051
RightHand  -1.45888 4.42275 -17.4128
LeftUpLeg  19.0905 8.99414 -2.24012
LeftLeg  12.0196 10.8497 -3.43677
LeftFoot  -19.0012 -0.153055 -3.96846
LeftToes  -7.27628e-011 -1.6005e-012 -1.37987e-011
450
root  6.38266 38.633 31.6639 -75.0247 -85.9714 68.9568
RightUpLeg  -17.8165 -7.47585 0.820178
RightLeg  5.16491 -16.2763 4.7908
RightFoot  3.22362 0.612896 -4.51154
RightToes  -4.65663e-010 0 -3.6325e-017
Spine  7.48989 -4.21779 -4.57067
Spine1  7.10289 -6.40983 6.41877
HEad  -13.8016 1.24263 -0.0844205
LeftShoulder1  8.22723 -12.2066 -45.6556
LeftArm  -16.9773 -8.85658 -11.1626
LeftForeArm  29.7335 -40.0642 -7.51309
LeftHand  -0.244104 0.0205437 5.32207
RightShoulder  5.35329 8.4585 38.678
RightArm  -13.2891 -22.9195 26.278
RightForeArm  7.79601 3.09266 4.22974
RightHand  -1.41368 4.3347 -17.0317
LeftUpLeg  21.3483 14.0377 1.3929
LeftLeg  14.6918 4.35182 -2.10253
LeftFoot  -18.402 -0.305402 -6.72217
LeftToes  -7.27628e-011 -1.6005e-012 -1.37987e-011
451
root  4.5258 38.6132 31.8035 -54.0299 -87.5786 47.6155
RightUpLeg  -18.5941 -12.3097 4.78865
RightLeg  11.5407 -12.0977 1.92771
RightFoot  5.1333 1.65997 -11.2845
RightToes  -4.65663e-010 0 -3.6325e-017
Spine  6.53889 -4.72677 -0.759752
Spine1  7.70099 -6.58582 5.69097
HEad  -13.6775 1.44527 -1.00921
LeftShoulder1  8.35189 -12.1901 -46.4199
LeftArm  -15.2236 -5.83581 -12.0472
LeftForeArm  32.7368 -42.8435 -8.18167
LeftHand  -0.244104 0.0205437 5.32207
RightShoulder  5.29021 8.31778 38.6771
RightArm  -13.6148 -24.0739 27.0478
RightForeArm  7.82606 4.26782 4.29901
RightHand  -1.306 4.03985 -16.2449
LeftUpLeg  22.9646 18.7313 6.3109
LeftLeg  18.7926 -2.08082 -0.77229
LeftFoot  -15.97 -0.364992 -11.8049
LeftToes  -7.27628e-011 -1.6005e-012 -1.37987e-011
452
root  2.69678 38.6463 31.8745 -42.6539 -89.5124 35.9961
RightUpLeg  -19.02 -16.0637 8.52577
RightLeg  16.9766 -7.56285 -0.398796
RightFoot  3.52575 2.00965 -15.116
RightToes  -4.65663e-010 0 -3.6325e-017
Spine  5.67333 -4.80955 3.09149
Spine1  7.90855 -6.20822 4.94306
HEad  -13.2438 1.64226 -1.91874
LeftShoulder1  8.39699 -12.1106 -46.9196
LeftArm  -13.008 -2.06417 -13.8769
LeftForeArm  34.4059 -43.8681 -8.41042
LeftHand  -0.244104 0.0205437 5.32207
RightShoulder  5.29883 8.31104 38.7711
RightArm  -13.3605 -24.761 27.8521
RightForeArm  9.15252 5.56855 4.4739
RightHand  -1.23001 3.90463 -15.5422
LeftUpLeg  21.0818 17.1554 8.69952
LeftLeg  26.6137 -1.23974 -0.234717
LeftFoot  -9.12651 0.362285 -15.9435
LeftToes  -7.27628e-011 -1.6005e-012 -1.37987e-011
453
root  1.02391 38.6547 31.8787 74.1675 -88.2323 -80.7816
RightUpLeg  -18.5404 -18.5852 10.9847
RightLeg  20.9203 -4.55334 -1.56178
RightFoot  -0.140565 1.50054 -15.1295
RightToes  -4.65663e-010 0 -3.6325e-017
Spine  5.1606 -4.66392 6.02902
Spine1  7.8588 -5.69069 4.89951
HEad  -12.845 1.70258 -2.52852
LeftShoulder1  8.37514 -11.9988 -47.1388
LeftArm  -10.9403 1.76125 -16.4679
LeftForeArm  34.1158 -43.0195 -8.15329
LeftHand  -0.244104 0.0205437 5.32207
RightShoulder  5.41405 8.51049 38.9763
RightArm  -13.0415 -24.438 28.7489
RightForeArm  10.5456 6.59465 4.64367
RightHand  -1.22738 3.98325 -15.3829
LeftUpLeg  15.5103 14.6522 10.0564
LeftLeg  37.9737 0.259777 0.578209
LeftFoot  2.96237 1.87863 -15.395
LeftToes  -7.27628e-011 -1.6005e-012 -1.37987e-011
454
root  -0.432296 38.583 31.8516 80.0045 -86.4911 -86.4948
RightUpLeg  -17.4443 -19.9495 12.2092
RightLeg  23.7608 -3.94985 -1.65226
RightFoot  -3.7449 0.890525 -13.7349
RightToes  -4.65663e-010 0 -3.6325e-017
Spine  5.0631 -4.70693 8.47397
Spine1  8.06972 -5.41722 5.60036
HEad  -12.7186 1.34189 -2.50096
LeftShoulder1  8.43095 -11.9987 -47.4588
LeftArm  -8.98036 4.91428 -19.0315
LeftForeArm  32.3169 -40.424 -7.46211
LeftHand  -0.244104 0.0205437 5.32207
RightShoulder  5.57583 8.75317 39.3846
RightArm  -12.7204 -22.9242 29.6783
RightForeArm  11.0364 7.53757 4.89002
RightHand  -1.27175 4.11965 -15.7043
LeftUpLeg  8.00235 11.2148 10.9927
LeftLeg  49.5074 0.598536 1.16873
LeftFoot  13.965 2.59844 -11.8824
LeftToes  -7.27628e-011 -1.6005e-012 -1.37987e-011
455
root  -1.85372 38.6561 31.8037 76.1892 -85.1982 -82.8077
RightUpLeg  -15.1032 -19.5105 12.2171
RightLeg  24.8488 -5.15315 -1.28041
RightFoot  -6.23147 0.541159 -13.0264
RightToes  -4.65663e-010 0 -3.6325e-017
Spine  5.04936 -4.56771 10.324
Spine1  8.52355 -4.99696 5.98588
HEad  -12.8406 0.617989 -1.79587
LeftShoulder1  8.58573 -12.1153 -47.9775
LeftArm  -6.70797 7.14276 -21.1532
LeftForeArm  30.0197 -36.0007 -6.35758
LeftHand  -0.244104 0.0205437 5.32207
RightShoulder  5.72038 8.88471 40.0345
RightArm  -12.2739 -20.3851 30.5469
RightForeArm  11.0715 8.61569 5.20894
RightHand  -1.31488 4.23345 -16.0383
LeftUpLeg  1.13379 7.85262 11.503
LeftLeg  58.1377 0.703282 1.77075
LeftFoot  17.1355 2.20529 -9.03754
LeftToes  -7.27628e-011 -1.6005e-012 -1.37987e-011
456
root  -3.35096 38.9676 31.7231 86.08 -85.2725 -92.9767
RightUpLeg  -11.3827 -16.6101 10.9105
RightLeg  23.9907 -7.2441 -0.874518
RightFoot  -7.87137 0.327453 -12.4782
RightToes  -4.65663e-010 0 -3.6325e-017
Spine  4.88093 -3.78859 11.0284
Spine1  8.83869 -3.92046 5.18199
HEad  -12.8942 -0.125646 -0.744646
LeftShoulder1  8.72448 -12.2086 -48.4691
LeftArm  -3.90292 8.98215 -22.9888
LeftForeArm  27.2991 -29.9114 -4.94895
LeftHand  -0.244104 0.0205437 5.32207
RightShoulder  5.83655 8.96923 40.619
RightArm  -11.4512 -17.212 31.5325
RightForeArm  11.2243 9.90674 5.50041
RightHand  -1.33866 4.33431 -16.1574
LeftUpLeg  -4.26267 6.03524 11.0455
LeftLeg  62.6602 1.28994 3.32478
LeftFoot  13.7713 1.49214 -7.06674
LeftToes  -7.27628e-011 -1.6005e-012 -1.37987e-011
457
root  -4.82369 39.2927 31.6423 111.933 -85.7286 -118.922
RightUpLeg  -7.67347 -13.8835 9.19664
RightLeg  22.5413 -7.93308 -0.220783
RightFoot  -9.35745 0.136499 -11.4461
RightToes  -4.65663e-010 0 -3.6325e-017
Spine  4.67462 -2.70435 11.2688
Spine1  8.89878 -2.38298 3.4873
HEad  -12.5611 -0.589202 0.0730415
LeftShoulder1  8.81646 -12.2526 -48.8453
LeftArm  -1.6691 11.2074 -24.5786
LeftForeArm  24.3324 -22.9163 -4.0013
LeftHand  -0.244104 0.0205437 5.32207
RightShoulder  5.90937 9.09979 40.7074
RightArm  -9.65744 -13.8557 32.8737
RightForeArm  10.7601 11.7272 5.74481
RightHand  -1.35387 4.38012 -16.2622
LeftUpLeg  -8.81455 5.4117 9.85082
LeftLeg  63.4788 2.11093 5.22264
LeftFoot  8.83146 0.982008 -5.82637
LeftToes  -7.27628e-011 -1.6005e-012 -1.37987e-011
